<svg
   
    viewBox="0 0 32 32" style="border-radius:50%">
    <path 
        d="M32 0H0v32h32V0zM16.913 25h-3.275v-8.996H12v-2.81h1.638v-2.257h.006c.057-1.95.716-3.808 3.923-3.924V7h2.05v2.81h-1.672c-.607 0-1.032.69-1.032 1.347v2.037h2.943l-.486 2.81h-2.457V25z" />
    <path
        d="M16 31c8.284 0 15-6.716 15-15 0-8.284-6.716-15-15-15C7.716 1 1 7.716 1 16c0 8.284 6.716 15 15 15zm0 1C7.163 32 0 24.837 0 16S7.163 0 16 0s16 7.163 16 16-7.163 16-16 16z"
        />
    <path 
        d="M13.638 25h3.275v-8.996h2.457l.486-2.81h-2.943v-2.037c0-.657.425-1.346 1.032-1.346h1.672V7h-2.05v.013c-3.207.116-3.866 1.973-3.923 3.924h-.006v2.257H12v2.81h1.638V25z"
        color="#fff" fill="#fff" />
</svg>