<svg xmlns="http://www.w3.org/2000/svg" viewBox="0 0 60 60" style="max-width:100%"><path d="M59.69 29.668c-.1-.5-.3-1-.4-1.6-.4-1.6-.9-3.2-1.3-4.7-.2-.6-.3-1.2-.5-1.7-.5-1.7-1-3-1.4-3.9-.3-.7-.7-1.5-1.1-2.4-.3-.5-.5-1-.9-1.5-.6-.9-1.2-1.9-1.8-2.8l-.6-.9c-.1-.2-.2-.3-.2-.3-.6-.9-1.8-1.1-2.8-.6l-3.3 2.1c-.9.6-1.2 1.8-.6 2.8 0 .1-1.4-.2-2.3-.4-2-.6-4-1-5.9-1.2-2.8-.4-5.3-.3-7.2.2l-13.9.9c.2-.8-.1-1.7-.8-2.2l-3.3-2.1c-.9-.6-2.2-.3-2.8.6 0 0-.1.2-.2.3-.2.3-.4.5-.6.9-.6.9-1.2 1.9-1.8 2.8l-.9 1.5c-.5.9-.9 1.7-1.1 2.4-.4.9-.8 2.3-1.4 3.9-.2.5-.3 1.1-.5 1.7-.4 1.5-.9 3.1-1.3 4.7-.2.6-.3 1.1-.4 1.6-.1.3-.1.5-.2.6-.2.9.1 2 .8 2.6l2 1.8c.9.8 2.3.5 2.7-.7.6.2 1.1.4 1.7.6l.9.3c.1 0 .6.2.7.2-.7 1.3-.4 3 .8 4 .7.5 1.5.7 2.3.6-.4 1.2 0 2.5 1 3.3s2.4.8 3.4.2c.1.8.5 1.6 1.1 2.1.8.6 1.9.8 2.8.5-.1 1 .3 2 1.1 2.6 1.3 1 3.2.8 4.2-.5l.6-.7.7.7c1.2 1.2 1.2 1.2 1.5 1.6 1.3 1.4 3.6 1.4 4.9.1.7-.7 1.1-1.6 1.1-2.5 1.3 1.1 3.3 1.1 4.6-.2.7-.7 1.1-1.6 1.1-2.5 1.3 1.1 3.3 1.1 4.6-.2.8-.8 1.1-1.8 1-2.8 1.3.6 2.9.4 4-.6s1.3-2.6.8-3.9l3.5-2.6c.4 1.2 1.7 1.5 2.7.7l2-1.8c1.1-1 1.4-2.1 1.1-3 0-.1-.1-.3-.2-.6zm-17.6-13.9c1.1.3 2.2.6 3.2 1 .3.1 1.3.2 1.3.2.5.7.9 1.5 1.4 2.2.2.3.4.6.6 1 .8 1.3 1.4 2.4 1.8 3.3.4.8.9 1.9 1.4 3.3.2.4.3.8.5 1.3.5 1.3 1 2.7 1.5 4.1l-3.8 2.8c-.1 0-.1-.1-.2-.1-.6-.5-1.3-1.1-2-1.7-2.1-1.8-4.2-3.5-6.2-5.2-.3-.2-.6-.5-.8-.7-5.9-4.7-9.1-7.1-10.3-7-.9 0-1.9.6-3.1 1.6-.4.4-.8.7-1.3 1.2-.6.6-1.1 1.2-1.6 1.8-.2.2-.4.4-.5.6l-.2.2c-.3.4-1 .5-1.4.1l-.8-.6c-.5-.4-.6-1.2-.3-1.7.1-.1.1-.3.2-.4.2-.3.4-.7.6-1 .7-1.1 1.5-2.2 2.4-3.2 1.8-2 3.7-3.5 5.8-4.1 1.5-.6 3.7-.6 6.2-.2 1.8.2 3.7.6 5.6 1.2zm-37.9 17.1l-1.6-1.4c-.1-.1-.2-.5-.2-.6s.1-.3.2-.6c.1-.5.3-1 .4-1.5.4-1.6.9-3.2 1.3-4.7.2-.6.3-1.1.5-1.7.5-1.6.9-2.9 1.3-3.7.3-.6.6-1.4 1.1-2.2.3-.5.5-.9.8-1.4.5-.9 1.1-1.8 1.7-2.7.2-.3.4-.6.6-.8.1-.1.2-.3.2-.3l3.3 2.1c-.1 0-.1.2-.3.4-.2.3-.5.7-.7 1.1-.7 1.1-1.5 2.3-2.2 3.5-.2.3-.4.7-.6 1-.8 1.3-1.4 2.5-1.9 3.4-.4.9-.9 2-1.5 3.5-.2.4-.3.8-.5 1.3-.5 1.3-1 2.8-1.5 4.2-.1.2-.2.7-.4 1.1zm7.1 4.7c-.4-.3-.5-1-.2-1.4l1.2-1.6c.3-.4 1-.5 1.4-.2s.5 1 .2 1.4l-1.2 1.6c-.4.4-1 .5-1.4.2zm3.3 3.8c-.4-.3-.5-1-.2-1.4l2.5-3.2c.3-.4 1-.5 1.4-.2s.5 1 .2 1.4l-2.5 3.2c-.4.5-1 .6-1.4.2zm4.5 2.3c-.4-.3-.5-1-.2-1.4l2.5-3.2c.3-.4 1-.5 1.4-.2s.5 1 .2 1.4l-2.5 3.2c-.3.5-.9.6-1.4.2zm6.6 1.3l-1.2 1.6c-.3.4-1 .5-1.4.2s-.5-1-.2-1.4l1.2-1.6c.3-.4 1-.5 1.4-.2.5.4.5 1 .2 1.4zm21-5.8l-9.8-8.7-.5-.4-.6.3c-.6.3-.7.8-.5 1.3 0 .1.1.2.2.3s.2.2.3.4.5.6.9 1l2.9 2.9.2.2 2.9 2.9.9.9.4.4c.6.6.5 1.5-.1 2.1s-1.5.6-2.1 0l-8.8-7.6-.5-.4-.6.3c-.5.2-.6.7-.6 1.1 0 .1.1.2.1.4.1.1.1.2.3.4s.4.5.7.8c.6.6 1.3 1.4 2.3 2.3l.2.2 2.3 2.3c.3.3.5.5.8.7l.3.3c.5.6.5 1.5-.1 2.1s-1.5.6-2.1 0l-7.1-6.3-.5-.5-.6.3c-.4.2-.6.6-.5.9 0 .2 0 .3.1.4s.1.2.2.4.3.4.6.7c.4.5 1 1.1 1.7 1.9l.2.2c.5.6 1.1 1.2 1.7 1.8l.6.6.2.2c.6.6.5 1.5-.1 2.1s-1.5.6-2.1 0c-.4-.4-.4-.4-1.5-1.6-.5-.6-.6-.6-1-1 .4-1.2.1-2.5-1-3.4-.6-.5-1.4-.7-2.1-.6.9-1.3.6-3.1-.6-4-1-.8-2.4-.8-3.4-.2-.1-.8-.5-1.6-1.1-2.1-1-.8-2.4-.8-3.4-.2-.1-.8-.4-1.6-1.1-2.1-1.3-1-3.2-.8-4.2.5l-.1.2c-.2-.1-.5-.2-.8-.3-.1 0-.6-.2-.7-.2-.3-.1-.5-.2-.8-.2-.5-.2-1.1-.4-1.7-.7.5-1.4 1-2.8 1.4-4.1.2-.4.3-.9.5-1.3.5-1.4 1-2.5 1.4-3.3.4-.9 1-2 1.8-3.3.2-.3.4-.6.6-1 .7-1.1 1.4-2.3 2.1-3.4l11.1-.8c-.9.7-1.8 1.5-2.6 2.5-1 1.1-1.8 2.2-2.6 3.4-.3.4-.5.8-.7 1.1l-.2.4c-.8 1.3-.4 3.2.8 4.2l.8.6c1.3 1 3.2.9 4.2-.4.1-.2.4-.4.7-.8.5-.6 1-1.2 1.6-1.7l1.1-1.1c.8-.7 1.5-1.1 1.8-1.1.4 0 4.2 2.7 9 6.6.3.2.6.4.8.7 2 1.6 4.1 3.4 6.2 5.1.7.6 2.2 2.5 2.2 2.5.4.4.4 1.3-.2 1.9s-1.5.6-2.1 0zm11.1-7.7l-1.6 1.5c-.1-.4-.3-.9-.5-1.4-.5-1.4-1-2.9-1.5-4.2-.2-.4-.3-.9-.5-1.3-.6-1.5-1.1-2.6-1.5-3.5-.5-1-1.1-2.1-1.9-3.4-.2-.3-.4-.6-.6-1-.7-1.1-1.4-2.3-2.2-3.5-.3-.4-.5-.8-.7-1.1-.1-.2-.2-.3-.3-.4l3.3-2.1c0 .1.1.2.2.3.2.2.4.5.6.8.6.9 1.2 1.8 1.7 2.7.3.5.6 1 .8 1.4.4.8.8 1.5 1.1 2.2.4.9.8 2.1 1.3 3.7.2.5.3 1.1.5 1.7.4 1.5.9 3.1 1.3 4.7.2.6.3 1.1.4 1.5.1.3.1.5.2.6.2.3.1.6-.1.8z"/></svg>