<svg xmlns="http://www.w3.org/2000/svg" viewBox="0 0 32 32" style="max-width:100%"><path d="M19.9 23.1c-2.9 0-5.7-1.1-7.7-3.2S8.9 15 8.9 12.1s1.1-5.7 3.2-7.7c2.1-2.1 4.8-3.2 7.7-3.2 2.9 0 5.7 1.1 7.7 3.2 2.1 2.1 3.2 4.8 3.2 7.7s-1.1 5.7-3.2 7.7c-1.9 2.1-4.7 3.3-7.6 3.3zm0-20.5c-2.5 0-4.9 1-6.7 2.8-1.8 1.8-2.8 4.2-2.8 6.7s1 4.9 2.8 6.7c1.8 1.8 4.2 2.8 6.7 2.8s4.9-1 6.7-2.8c1.8-1.8 2.8-4.2 2.8-6.7s-1-4.9-2.8-6.7-4.2-2.8-6.7-2.8z"/><path d="M12.177 18.772l1.06 1.06-1.909 1.91-1.06-1.06z"/><path d="M3.8 30.9c-.7 0-1.4-.3-1.9-.8-1-1-1-2.7 0-3.8l5.7-5.7c1-1 2.7-1 3.8 0 1 1 1 2.7 0 3.8l-5.7 5.7c-.5.5-1.2.8-1.9.8zm5.7-9.5c-.3 0-.6.1-.8.3L3 27.4c-.4.4-.4 1.2 0 1.6.4.4 1.2.4 1.6 0l5.7-5.7c.4-.4.4-1.2 0-1.6-.2-.2-.5-.3-.8-.3z"/></svg>