<svg width="24" height="17" fill="none" xmlns="http://www.w3.org/2000/svg"><path d="M23.04 3.36c-.188-1.66-.587-2.141-.864-2.368-.445-.351-1.254-.476-2.332-.55C18.114.323 15.172.25 12 .25c-3.18 0-6.113.066-7.844.191-1.078.075-1.886.2-2.332.551-.277.227-.668.707-.863 2.367C.68 5.75.68 11.203.96 13.598c.195 1.656.586 2.14.863 2.367.446.348 1.254.473 2.332.547 1.73.117 4.664.195 7.844.195 3.18 0 6.113-.078 7.844-.195 1.078-.075 1.886-.2 2.332-.547.277-.219.668-.711.863-2.367.281-2.395.281-7.848 0-10.239zM9.28 12.054v-7.16l6.79 3.574-6.79 3.586z" fill="#fff"/></svg>